<?xml version="1.0" encoding="UTF-8" standalone="no"?>
<!-- Created with Inkscape (http://www.inkscape.org/) -->

<svg
   width="167.20407mm"
   height="36.370636mm"
   viewBox="0 0 167.20407 36.370636"
   version="1.1"
   id="svg104514"
   xmlns="http://www.w3.org/2000/svg"
   xmlns:svg="http://www.w3.org/2000/svg">
  <defs
     id="defs104511" />
  <g
     id="layer1"
     transform="translate(-22.849453,-96.07269)">
    <path
       d="m 43.950982,106.01579 q 1.456263,0.91431 2.312888,2.39335 0.856625,1.45214 0.856625,3.1732 v 10.75661 H 42.83737 v -10.75661 q -0.05711,-1.10256 -0.856625,-1.88241 -0.770963,-0.80675 -1.998792,-0.80675 -0.599637,0 -1.113613,0.21514 -0.513975,0.18824 -0.913733,0.56472 -0.371204,0.34959 -0.599637,0.86052 -0.228434,0.48405 -0.228434,1.04878 v 10.75661 h -4.283125 v -10.75661 q -0.0571,-1.10256 -0.856625,-1.88241 -0.770962,-0.80675 -1.998791,-0.80675 -0.599638,0 -1.113613,0.21514 -0.513975,0.18824 -0.913733,0.56472 -0.371204,0.34959 -0.599637,0.86052 -0.228434,0.48405 -0.228434,1.04878 v 10.75661 h -4.283125 v -10.75661 q 0,-1.39836 0.542529,-2.60848 0.571083,-1.23701 1.513371,-2.15132 0.970842,-0.91431 2.255779,-1.42526 1.313492,-0.53783 2.826863,-0.53783 1.456262,0 2.712645,0.53783 1.284938,0.51095 2.284334,1.37148 0.970841,-0.86053 2.227225,-1.37148 1.284937,-0.53783 2.769754,-0.53783 1.085059,0 2.113008,0.3227 1.027951,0.29581 1.856021,0.83364 z"
       style="font-size:70.5556px;font-family:'Sans Sara';-inkscape-font-specification:'Sans Sara';fill:#ffffff;fill-opacity:1;stroke-width:0.207959"
       id="path2582-6-5-8" />
    <path
       id="text113-0-4-2-2"
       style="font-size:70.5556px;font-family:'Typo Round Bold Demo';-inkscape-font-specification:'Typo Round Bold Demo';fill:#ffffff;fill-opacity:1;stroke-width:0.207957"
       d="m 86.638869,106.1945 c -0.24524,0.0774 -1.04672,2.26672 -1.28691,0.69918 -1.12313,0.44819 -1.26598,0.27759 -2.10357,1.0664 -0.83759,0.78881 -1.4106,1.09868 -1.90554,2.15641 -0.49494,1.05773 -0.83563,2.28385 -0.83563,3.50293 0,1.18323 0.33118,2.04945 0.80708,3.12511 0.49494,1.05774 0.60255,1.63058 1.44013,2.41939 0.83758,0.78883 1.44585,2.02977 2.56897,2.49588 1.12315,0.46612 2.33168,0.69931 3.62613,0.69931 0.91373,0 1.79889,-0.11645 2.65551,-0.34951 0.87566,-0.25098 1.6562,-0.59165 2.3415,-1.02192 v 2.71598 c 0,0.62745 -0.13315,1.21894 -0.39966,1.7747 -0.24747,0.57368 -0.5997,1.07588 -1.05656,1.50614 -0.43783,0.43027 -0.96126,0.77093 -1.57041,1.02192 -0.60915,0.26892 -1.26605,0.40327 -1.97038,0.40327 v 4.03364 c 1.25638,0 2.4462,-0.23289 3.56934,-0.699 1.14216,-0.4482 2.13225,-1.06684 2.96984,-1.85566 0.83758,-0.78881 1.50366,-1.71201 1.99861,-2.76974 0.49494,-1.05774 0.74253,-2.1962 0.74253,-3.41527 v -10.08424 c 0,-0.55312 -0.0565,-1.09212 -0.16469,-1.61782 l -2.35135,1.12871 c 2.32724,-0.5966 0.0943,0.64735 0.0943,0.66444 0,0.62747 -0.97087,3.34075 -1.23738,3.93236 -0.38072,0.8426 -1.81797,0.56862 -2.63652,1.10646 -0.81856,0.53783 -2.1239,0.54386 -3.17089,0.54386 -0.66626,0 -1.11766,-1.16868 -1.72681,-1.40173 -0.59012,-0.251 -1.76512,0.64455 -2.22198,0.23221 -0.45687,-0.41233 -3.62055,-2.39554 -2.13754,-2.53091 -0.2665,-0.5737 -0.39967,-1.55164 -0.39967,-2.23289 0,-0.62747 0.58906,-2.19248 0.83652,-2.76615 0.2665,-0.57369 1.27031,-1.77688 1.70812,-2.20716 0.45688,-0.43026 1.5483,-0.1573 2.15745,-0.40829 0.27855,-0.11477 1.49819,-1.07874 1.79664,-1.14102 z" />
    <path
       d="m 58.635341,118.90171 q 1.055789,0 2.075172,-0.44573 1.019382,-0.44572 1.929545,-1.23431 l 3.56784,2.33149 q -1.529074,1.5429 -3.45862,2.43435 -1.929546,0.89146 -3.968311,0.89146 h -0.291252 q -1.965953,0 -3.67706,-0.68574 -1.711106,-0.68573 -2.985334,-1.85147 -1.274229,-1.20004 -2.038766,-2.77722 -0.72813,-1.61148 -0.72813,-3.39439 V 113.793 q 0,-1.81719 0.72813,-3.39438 0.764537,-1.57718 2.038766,-2.74293 1.274228,-1.16574 2.985334,-1.85148 1.711107,-0.68573 3.67706,-0.68573 h 0.291252 q 1.711106,0 3.240181,0.61716 1.56548,0.58287 2.803302,1.61147 1.274228,1.0286 2.111578,2.43435 0.873757,1.40576 1.237822,3.01723 l -13.434007,4.49155 q 0.72813,0.75431 1.711106,1.20004 1.019383,0.41143 2.184392,0.41143 z m 3.931904,-8.19451 q -1.419854,-1.64576 -3.931904,-1.64576 -1.092196,0 -2.075172,0.37716 -0.94657,0.37715 -1.6747,1.02859 -0.691724,0.61716 -1.128602,1.50862 -0.436879,0.85716 -0.436879,1.85148 z"
       style="font-size:59.9722px;font-family:Fieldstones;-inkscape-font-specification:Fieldstones;fill:#ffffff;fill-opacity:1;stroke-width:0.207959"
       id="path2579-5-3-5" />
    <path
       d="m 93.197272,116.96631 c 0.447483,-0.51166 0.765475,-1.10897 0.953977,-1.79191 0.188502,-0.68293 0.260184,-1.41207 0.215051,-2.1874 l 3.806872,-1.37435 c 0.194981,1.39498 0.08572,2.48104 -0.244996,3.79399 -0.330713,1.31295 -1.123115,2.72146 -1.812682,3.82453 l -0.285731,0.45706 c -0.664936,1.06367 -1.265082,1.61095 -2.365004,2.14957 -1.099922,0.53861 -2.238403,0.86964 -3.415443,0.99309 -1.195774,0.10891 -2.386572,0.0144 -3.572402,-0.28356 -1.189134,-0.33013 -2.270804,-0.87303 -3.244999,-1.62869 l -0.309123,-0.23977 c -0.992929,-0.7702 -1.765984,-1.66596 -2.319168,-2.68731 -0.537752,-1.03899 -0.855084,-2.11429 -0.951995,-3.2259 -0.09691,-1.11162 0.0299,-2.22737 0.380441,-3.34727 0.350538,-1.11989 0.942431,-2.15621 1.775674,-3.10897 l 0.185165,-0.21173 c 0.72523,-0.82925 1.580493,-1.48361 2.565795,-1.96307 0.981994,-0.51164 2.016325,-0.84942 3.103,-1.01335 1.102104,-0.18157 2.214663,-0.17735 3.33768,0.0127 1.138448,0.17236 2.225084,0.51183 3.259914,1.01839 l -4.859394,12.62132 c 0.720768,-0.0332 1.41124,-0.19349 2.071406,-0.48096 0.656868,-0.31964 1.232189,-0.76176 1.725962,-1.32636 z m -4.216613,-8.06798 c -1.501046,-0.009 -2.783921,0.59457 -3.84862,1.81198 -0.462913,0.52931 -0.799639,1.11209 -1.010183,1.74831 -0.195109,0.61859 -0.268991,1.24238 -0.221641,1.87136 0.04405,0.59681 0.217034,1.18999 0.518969,1.77954 0.283196,0.57502 0.696447,1.07325 1.239753,1.49468 z"
       style="font-size:59.9722px;font-family:Fieldstones;-inkscape-font-specification:Fieldstones;fill:#ffffff;fill-opacity:1;stroke-width:0.207959"
       id="path488-3-5-9" />
    <path
       d="m 108.26421,103.58157 v -3.977268 h 4.29598 v 3.977268 z m 0,19.50914 v -17.38337 h 4.25957 v 17.38337 z"
       style="font-size:59.9723px;font-family:Fieldstones;-inkscape-font-specification:Fieldstones;fill:#ffffff;fill-opacity:1;stroke-width:0.207959"
       id="path491-8-0-2" />
    <path
       d="m 126.33392,120.99922 c -0.67958,0.4343 -1.37131,0.82288 -2.07517,1.16575 -0.60678,0.29715 -1.28637,0.57144 -2.03877,0.82288 -0.7524,0.22858 -1.49267,0.34287 -2.2208,0.34287 -0.77668,0 -1.5048,-0.0914 -2.1844,-0.2743 -0.65532,-0.18286 -1.23782,-0.48001 -1.74751,-0.89145 -0.48543,-0.41144 -0.87376,-0.9486 -1.16501,-1.61148 -0.29126,-0.68574 -0.43688,-1.52004 -0.43688,-2.50293 v -8.98312 l 0.002,0.3725 0.0259,-3.59973 -0.0278,-0.13289 v -3.90869 l 4.15035,-2.262925 v 6.171615 h 3.64065 v 3.3601 h -3.64065 v 8.84597 c 0,0.4343 0.14562,0.7886 0.43688,1.06289 0.31552,0.27429 0.67958,0.4343 1.09219,0.48002 0.0486,0 0.085,0.0114 0.10923,0.0343 h 0.0728 c 0.41261,0 0.87376,-0.10286 1.38345,-0.30858 0.50969,-0.22858 0.98297,-0.46859 1.41985,-0.72002 0.5097,-0.2743 1.03153,-0.60574 1.56549,-0.99432 z"
       style="font-size:59.9723px;font-family:Fieldstones;-inkscape-font-specification:Fieldstones;fill:#ffffff;fill-opacity:1;stroke-width:0.207959"
       id="path493-8-6-6" />
    <path
       d="m 71.406122,108.74429 q 1.284937,-1.77485 3.312284,-2.79672 2.027345,-1.04877 4.397342,-1.04877 v 4.03373 q -1.056503,0 -1.970239,0.37648 -0.913735,0.37648 -1.599035,1.02188 -0.656745,0.64539 -1.056504,1.50592 -0.371203,0.83364 -0.371203,1.80174 v 8.73974 h -4.283124 v -8.73974 q 0,-1.37147 0.399758,-2.60848 0.428312,-1.23701 1.170721,-2.28578 z"
       style="font-size:70.5556px;font-family:'Sans Sara';-inkscape-font-specification:'Sans Sara';fill:#ffffff;fill-opacity:1;stroke-width:0.207959"
       id="path2576-1-7-8" />
    <path
       id="path2815-71-3"
       style="mix-blend-mode:normal;fill:#e7254b;fill-opacity:1;fill-rule:nonzero;stroke:none;stroke-width:0.497428"
       d="m 130.09232,96.072689 10.8722,14.385681 h -5.1e-4 l -10.87169,14.38517 h 26.97355 l 16.30804,-14.38517 -16.30804,-14.385681 z" />
    <path
       id="path2815-7-8-6"
       style="mix-blend-mode:normal;fill:#07d3bd;fill-opacity:1;fill-rule:nonzero;stroke:none;stroke-width:0.491442"
       d="m 163.72489,96.072689 -15.91789,14.385681 15.91841,14.38517 h 26.32811 l -10.61176,-14.38517 10.61176,-14.385681 z" />
    <path
       id="path2815-71-3-4"
       style="mix-blend-mode:normal;fill:#ffffff;fill-opacity:1;fill-rule:nonzero;stroke:none;stroke-width:0.497428"
       d="m 160.40598,99.081181 -12.62817,11.412749 h -10e-4 l 5.2e-4,5.2e-4 12.62869,11.41222 12.93771,-11.41222 v -5.2e-4 z" />
  </g>
</svg>
