<?xml version="1.0" encoding="UTF-8" standalone="no"?>
<!-- Created with Inkscape (http://www.inkscape.org/) -->

<svg
   width="167.20407mm"
   height="36.370636mm"
   viewBox="0 0 167.20407 36.370636"
   version="1.1"
   id="svg104514"
   xmlns="http://www.w3.org/2000/svg"
   xmlns:svg="http://www.w3.org/2000/svg">
  <defs
     id="defs104511" />
  <g
     id="layer1"
     transform="translate(-22.849453,-96.07269)">
    <g
       aria-label="m"
       id="text113-9-1-9"
       style="font-size:70.5556px;font-family:'Typo Round Bold Demo';-inkscape-font-specification:'Typo Round Bold Demo';fill:#061f38;fill-opacity:1;stroke-width:0.352999"
       transform="matrix(0.60705668,0,0,0.57170919,12.501883,43.018911)">
      <path
         d="m 51.805869,110.19043 q 2.398891,1.59926 3.810003,4.1863 1.411112,2.54 1.411112,5.55037 v 18.81483 h -7.05556 V 119.9271 q -0.09407,-1.92852 -1.411112,-3.29259 -1.270001,-1.41112 -3.292595,-1.41112 -0.987778,0 -1.834446,0.3763 -0.846667,0.32926 -1.505186,0.98778 -0.611482,0.61148 -0.987778,1.50518 -0.376297,0.84667 -0.376297,1.83445 v 18.81483 H 33.50845 V 119.9271 q -0.09407,-1.92852 -1.411112,-3.29259 -1.270001,-1.41112 -3.292595,-1.41112 -0.987779,0 -1.834446,0.3763 -0.846667,0.32926 -1.505186,0.98778 -0.611482,0.61148 -0.987778,1.50518 -0.376297,0.84667 -0.376297,1.83445 v 18.81483 h -7.05556 V 119.9271 q 0,-2.44593 0.893704,-4.5626 0.940741,-2.1637 2.492965,-3.76296 1.59926,-1.59926 3.715928,-2.49297 2.163705,-0.94074 4.65667,-0.94074 2.39889,0 4.468521,0.94074 2.116669,0.89371 3.762966,2.3989 1.59926,-1.50519 3.668891,-2.3989 2.116668,-0.94074 4.562596,-0.94074 1.787409,0 3.480743,0.56445 1.693335,0.51741 3.057409,1.45815 z"
         style="font-family:'Sans Sara';-inkscape-font-specification:'Sans Sara';fill:#061f38;fill-opacity:1;stroke-width:0.353"
         id="path2582-6-5-8" />
    </g>
    <path
       id="text113-0-4-2-2"
       style="font-size:70.5556px;font-family:'Typo Round Bold Demo';-inkscape-font-specification:'Typo Round Bold Demo';fill:#061f38;fill-opacity:1;stroke-width:0.207957"
       d="m 86.638869,106.1945 c -0.24524,0.0774 -1.04672,2.26672 -1.28691,0.69918 -1.12313,0.44819 -1.26598,0.27759 -2.10357,1.0664 -0.83759,0.78881 -1.4106,1.09868 -1.90554,2.15641 -0.49494,1.05773 -0.83563,2.28385 -0.83563,3.50293 0,1.18323 0.33118,2.04945 0.80708,3.12511 0.49494,1.05774 0.60255,1.63058 1.44013,2.41939 0.83758,0.78883 1.44585,2.02977 2.56897,2.49588 1.12315,0.46612 2.33168,0.69931 3.62613,0.69931 0.91373,0 1.79889,-0.11645 2.65551,-0.34951 0.87566,-0.25098 1.6562,-0.59165 2.3415,-1.02192 v 2.71598 c 0,0.62745 -0.13315,1.21894 -0.39966,1.7747 -0.24747,0.57368 -0.5997,1.07588 -1.05656,1.50614 -0.43783,0.43027 -0.96126,0.77093 -1.57041,1.02192 -0.60915,0.26892 -1.26605,0.40327 -1.97038,0.40327 v 4.03364 c 1.25638,0 2.4462,-0.23289 3.56934,-0.699 1.14216,-0.4482 2.13225,-1.06684 2.96984,-1.85566 0.83758,-0.78881 1.50366,-1.71201 1.99861,-2.76974 0.49494,-1.05774 0.74253,-2.1962 0.74253,-3.41527 v -10.08424 c 0,-0.55312 -0.0565,-1.09212 -0.16469,-1.61782 l -2.35135,1.12871 c 2.32724,-0.5966 0.0943,0.64735 0.0943,0.66444 0,0.62747 -0.97087,3.34075 -1.23738,3.93236 -0.38072,0.8426 -1.81797,0.56862 -2.63652,1.10646 -0.81856,0.53783 -2.1239,0.54386 -3.17089,0.54386 -0.66626,0 -1.11766,-1.16868 -1.72681,-1.40173 -0.59012,-0.251 -1.76512,0.64455 -2.22198,0.23221 -0.45687,-0.41233 -3.62055,-2.39554 -2.13754,-2.53091 -0.2665,-0.5737 -0.39967,-1.55164 -0.39967,-2.23289 0,-0.62747 0.58906,-2.19248 0.83652,-2.76615 0.2665,-0.57369 1.27031,-1.77688 1.70812,-2.20716 0.45688,-0.43026 1.5483,-0.1573 2.15745,-0.40829 0.27855,-0.11477 1.49819,-1.07874 1.79664,-1.14102 z" />
    <g
       aria-label="e"
       id="text167-80-5-8"
       style="font-size:59.9722px;font-family:'Sans Sara';-inkscape-font-specification:'Sans Sara';fill:#061f38;fill-opacity:1;stroke-width:0.352999"
       transform="matrix(0.60705668,0,0,0.57170919,12.501883,43.018911)">
      <path
         d="m 75.995305,132.72972 q 1.739194,0 3.418416,-0.77964 1.679221,-0.77963 3.178526,-2.15899 l 5.877276,4.0781 q -2.518833,2.69875 -5.697359,4.25803 -3.178527,1.55928 -6.53697,1.55928 h -0.479777 q -3.238499,0 -6.057193,-1.19945 -2.818693,-1.19944 -4.91772,-3.23849 -2.099027,-2.09903 -3.358443,-4.85775 -1.199444,-2.8187 -1.199444,-5.93725 v -0.65969 q 0,-3.17853 1.199444,-5.93725 1.259416,-2.75872 3.358443,-4.79778 2.099027,-2.03905 4.91772,-3.2385 2.818694,-1.19944 6.057193,-1.19944 h 0.479777 q 2.818693,0 5.337526,1.0795 2.578804,1.01953 4.617859,2.81869 2.099027,1.79917 3.478388,4.25803 1.439332,2.45886 2.039054,5.27755 l -22.129741,7.85636 q 1.199444,1.31939 2.818693,2.09903 1.679222,0.71966 3.598332,0.71966 z m 6.476998,-14.33335 q -2.338916,-2.87867 -6.476998,-2.87867 -1.799166,0 -3.418415,0.6597 -1.559277,0.65969 -2.758721,1.79916 -1.139472,1.0795 -1.859138,2.63878 -0.719667,1.4993 -0.719667,3.2385 z"
         style="font-family:Fieldstones;-inkscape-font-specification:Fieldstones;fill:#061f38;fill-opacity:1;stroke-width:0.353"
         id="path2579-5-3-5" />
    </g>
    <g
       aria-label="e"
       transform="matrix(0.3859394,-0.44129707,0.46858147,0.36346706,43.019039,20.615132)"
       id="text167-8-6-7-4"
       style="font-size:59.9722px;font-family:'Sans Sara';-inkscape-font-specification:'Sans Sara';display:inline;fill:#061f38;fill-opacity:1;stroke-width:0.352999">
      <path
         d="m -77.537753,170.94809 c 1.159463,0 2.298934,-0.25988 3.418415,-0.77964 1.119481,-0.51976 2.17899,-1.23943 3.178527,-2.159 l 5.842415,3.31224 c -1.679221,1.79917 -3.259998,2.86797 -5.379015,3.90749 -2.119018,1.03952 -4.85058,1.59826 -7.062044,1.94809 l -0.916339,0.14495 c -2.132479,0.33734 -3.499911,0.18283 -5.37904,-0.6168 -1.879129,-0.79963 -3.518369,-1.87913 -4.91772,-3.2385 -1.399351,-1.39935 -2.518832,-3.01859 -3.358443,-4.85774 -0.799629,-1.87913 -1.199444,-3.85822 -1.199444,-5.93725 v -0.6597 c 0,-2.11901 0.399815,-4.09809 1.199444,-5.93724 0.839611,-1.83915 1.959092,-3.43841 3.358443,-4.79778 1.399351,-1.35937 3.038591,-2.43887 4.91772,-3.2385 1.879129,-0.79963 3.898193,-1.19944 6.057192,-1.19944 h 0.479778 c 1.879129,0 3.658304,0.35983 5.337526,1.0795 1.719203,0.67968 3.258489,1.61924 4.617859,2.81869 1.399351,1.19945 2.558814,2.61879 3.478387,4.25803 0.959555,1.63924 1.63924,3.39842 2.039055,5.27755 l -22.129741,7.85636 c 0.799629,0.87959 1.739194,1.57927 2.818693,2.09902 1.119481,0.47978 2.318925,0.71967 3.598332,0.71967 z m 6.476998,-14.33335 c -1.559277,-1.91911 -3.718277,-2.87867 -6.476998,-2.87867 -1.199444,0 -2.338916,0.2199 -3.418415,0.65969 -1.039518,0.4398 -1.959092,1.03952 -2.758721,1.79917 -0.759648,0.71967 -1.379361,1.59926 -1.859138,2.63878 -0.479778,0.99953 -0.719667,2.07903 -0.719667,3.2385 z"
         style="font-family:Fieldstones;-inkscape-font-specification:Fieldstones;fill:#061f38;fill-opacity:1;stroke-width:0.353"
         id="path488-3-5-9" />
    </g>
    <g
       aria-label="it"
       id="text390-0-5-0"
       style="font-size:59.9723px;font-family:Fieldstones;-inkscape-font-specification:Fieldstones;fill:#061f38;fill-opacity:1;stroke-width:0.352999"
       transform="matrix(0.60705668,0,0,0.57170919,12.580043,44.454899)">
      <path
         d="m 157.61983,103.42088 v -6.956797 h 7.07673 v 6.956797 z m 0,34.12424 v -30.40596 h 7.01676 v 30.40596 z"
         style="fill:#061f38;fill-opacity:1;stroke-width:0.353"
         id="path491-8-0-2" />
      <path
         d="m 187.38593,133.88681 c -1.11948,0.75965 -2.25895,1.43933 -3.41842,2.03906 -0.99954,0.51976 -2.11902,0.99954 -3.35845,1.43933 -1.23943,0.39982 -2.45886,0.59973 -3.65831,0.59973 -1.27941,0 -2.47885,-0.15993 -3.59834,-0.47978 -1.0795,-0.31985 -2.03906,-0.83961 -2.87867,-1.55928 -0.79963,-0.71967 -1.43933,-1.65923 -1.91911,-2.8187 -0.47978,-1.19945 -0.71967,-2.65877 -0.71967,-4.37798 v -15.71274 l 0.003,0.65156 0.0427,-6.29645 -0.0458,-0.23244 v -6.83685 l 6.83684,-3.958172 v 10.795022 h 5.99723 v 5.87729 h -5.99723 v 15.47285 c 0,0.75965 0.23989,1.37937 0.71967,1.85914 0.51976,0.47978 1.11948,0.75965 1.79917,0.83962 0.08,0 0.13993,0.02 0.17992,0.06 h 0.11994 c 0.67969,0 1.43934,-0.17992 2.27895,-0.53975 0.83961,-0.39981 1.61925,-0.81962 2.33892,-1.25942 0.83961,-0.47978 1.69922,-1.05951 2.57881,-1.7392 z"
         style="fill:#061f38;fill-opacity:1;stroke-width:0.353"
         id="path493-8-6-6" />
    </g>
    <g
       aria-label="r"
       id="text498-7-7-8"
       style="font-size:70.5556px;font-family:Fieldstones;-inkscape-font-specification:Fieldstones;fill:#061f38;fill-opacity:1;stroke-width:0.352999"
       transform="matrix(0.60705668,0,0,0.57170919,12.501883,43.018911)">
      <path
         d="m 97.032519,114.96295 q 2.116668,-3.10445 5.456301,-4.89185 3.33963,-1.83445 7.24371,-1.83445 v 7.05556 q -1.74037,0 -3.24556,0.65852 -1.50519,0.65852 -2.63408,1.78741 -1.08185,1.12889 -1.74037,2.63407 -0.61148,1.45815 -0.61148,3.15149 v 15.28705 H 94.44548 V 123.5237 q 0,-2.39889 0.658519,-4.5626 0.705556,-2.1637 1.92852,-3.99815 z"
         style="font-family:'Sans Sara';-inkscape-font-specification:'Sans Sara';fill:#061f38;fill-opacity:1;stroke-width:0.353"
         id="path2576-1-7-8" />
    </g>
    <path
       id="path2815-71-3"
       style="mix-blend-mode:normal;fill:#e7254b;fill-opacity:1;fill-rule:nonzero;stroke:none;stroke-width:0.497428"
       d="m 130.09232,96.072689 10.8722,14.385681 h -5.1e-4 l -10.87169,14.38517 h 26.97355 l 16.30804,-14.38517 -16.30804,-14.385681 z" />
    <path
       id="path2815-7-8-6"
       style="mix-blend-mode:normal;fill:#07d3bd;fill-opacity:1;fill-rule:nonzero;stroke:none;stroke-width:0.491442"
       d="m 163.72489,96.072689 -15.91789,14.385681 15.91841,14.38517 h 26.32811 l -10.61176,-14.38517 10.61176,-14.385681 z" />
    <path
       id="path2815-71-3-4"
       style="mix-blend-mode:normal;fill:#061f38;fill-opacity:1;fill-rule:nonzero;stroke:none;stroke-width:0.497428"
       d="m 160.40598,99.081181 -12.62817,11.412749 h -10e-4 l 5.2e-4,5.2e-4 12.62869,11.41222 12.93771,-11.41222 v -5.2e-4 z" />
  </g>
</svg>
